{"title":"Season Of The Witch CAM XViD - IMAGiNE","uid":6095597,"size":738326373,"categoryP":"video","categoryS":"movies","magnet":"?xt=urn:btih:a930e9a6aa41488187819901d09d88b301a2e1bb&amp;dn=Season+Of+The+Witch+CAM+XViD+-+IMAGiNE&amp;tr=udp%3A%2F%2Ftracker.openbittorrent.com%3A80&amp;tr=udp%3A%2F%2Fopen.demonii.com%3A1337&amp;tr=udp%3A%2F%2Ftracker.coppersurfer.tk%3A6969&amp;tr=udp%3A%2F%2Fexodus.desync.com%3A6969","seeders":0,"leechers":0,"uploader":"gambling3","files":1,"time":1294759553,"description":"Ripper ...........:IMAGiNE                                       IMDB Rating.......:5.9/10                           \nVideo Codec.......:XVID                                          Release Date......:11/01/11\nAudio Codec.......:MP3                                           Theatre Date......:07/01/11\nAudio Bitrate.....:128                                           Runtime...........:1h 24mn\nSubtitles.........:NIL                                           Language..........:ENGLISH\nResolution........:720 x 416                                     IMDb URL..........:http://www.imdb.com/title/tt0479997/\n\n\nDETAILS:\n\nVideo\nID                               : 0\nFormat                           : MPEG-4 Visual\nFormat profile                   : Advanced Simple@L5\nFormat settings, BVOP            : Yes\nFormat settings, QPel            : No\nFormat settings, GMC             : No warppoints\nFormat settings, Matrix          : Default (MPEG)\nMuxing mode                      : Packed bitstream\nCodec ID                         : XVID\nCodec ID/Hint                    : XviD\nDuration                         : 1h 24mn\nBit rate                         : 1 032 Kbps\nWidth                            : 720 pixels\nHeight                           : 416 pixels\nDisplay aspect ratio             : 16:9\nFrame rate                       : 25.000 fps\nColor space                      : YUV\nChroma subsampling               : 4:2:0\nBit depth                        : 8 bits\nScan type                        : Progressive\nBits/(Pixel*Frame)               : 0.138\nStream size                      : 621 MiB (88%)\nWriting library                  : XviD 1.2.1 (UTC 2008-12-04)\n\nAudio\nID                               : 1\nFormat                           : MPEG Audio\nFormat version                   : Version 1\nFormat profile                   : Layer 3\nCodec ID                         : 55\nCodec ID/Hint                    : MP3\nDuration                         : 1h 24mn\nBit rate mode                    : Constant\nBit rate                         : 128 Kbps\nChannel(s)                       : 2 channels\nSampling rate                    : 44.1 KHz\nStream size                      : 77.1 MiB (11%)\nAlignment                        : Split accross interleaves\nInterleave, duration             : 40 ms (1.00 video frame)\nInterleave, preload duration     : 500 ms","torrent":{"xt":"urn:btih:a930e9a6aa41488187819901d09d88b301a2e1bb","amp;dn":"Season+Of+The+Witch+CAM+XViD+-+IMAGiNE","amp;tr":["udp%3A%2F%2Ftracker.openbittorrent.com%3A80","udp%3A%2F%2Fopen.demonii.com%3A1337","udp%3A%2F%2Ftracker.coppersurfer.tk%3A6969","udp%3A%2F%2Fexodus.desync.com%3A6969"],"infoHash":"a930e9a6aa41488187819901d09d88b301a2e1bb","infoHashBuffer":{"type":"Buffer","data":[169,48,233,166,170,65,72,129,135,129,153,1,208,157,136,179,1,162,225,187]},"announce":[],"urlList":[]}}